<?xml version="1.0" standalone="no"?><!DOCTYPE svg PUBLIC "-//W3C//DTD SVG 1.1//EN" "http://www.w3.org/Graphics/SVG/1.1/DTD/svg11.dtd"><svg t="1603120560836" class="icon" viewBox="0 0 1024 1024" version="1.1" xmlns="http://www.w3.org/2000/svg" p-id="22194" xmlns:xlink="http://www.w3.org/1999/xlink" width="128" height="128"><defs><style type="text/css"></style></defs><path d="M976 448a160 160 0 0 1-160 160H240c-11.04 0-21.824-1.12-32.256-3.264C117.152 589.344 48 511.008 48 416a192 192 0 0 1 192-192c0.736 0 1.44 0.128 2.176 0.128C257.92 97.824 365.44 0 496 0c109.472 0 202.592 68.832 239.2 165.44 10.432-3.2 21.312-5.44 32.8-5.44A112 112 0 0 1 880 272c0 9.696-1.6 18.912-3.936 27.904A159.84 159.84 0 0 1 976 448z" fill="#68d8fe" p-id="22195"></path><path d="M287.872 767.36l-53.216 118.944a13.28 13.28 0 0 0 1.44 13.312l77.184 103.296c2.944 3.808 7.744 5.76 12.544 5.12l128.928-13.92a13.632 13.632 0 0 0 11.136-8.192l53.184-118.976a13.12 13.12 0 0 0-1.44-13.312l-77.344-104.896a13.76 13.76 0 0 0-12.384-3.52l-128.928 13.92a13.536 13.536 0 0 0-11.104 8.224zM690.72 768.096a13.376 13.376 0 0 0-5.216 12.416l9.12 84.736a13.376 13.376 0 0 0 8.288 10.976l78.976 34.08c4.448 1.92 9.6 1.376 13.504-1.472l69.92-50.112a13.44 13.44 0 0 0 5.728-12.48l-9.152-84.736a13.376 13.376 0 0 0-7.712-11.04l-78.464-34.112a13.664 13.664 0 0 0-13.472 1.44l-71.52 50.304z" fill="#68d8fe" p-id="22196"></path></svg>