<?xml version="1.0" standalone="no"?><!DOCTYPE svg PUBLIC "-//W3C//DTD SVG 1.1//EN" "http://www.w3.org/Graphics/SVG/1.1/DTD/svg11.dtd"><svg t="1603120199897" class="icon" viewBox="0 0 1024 1024" version="1.1" xmlns="http://www.w3.org/2000/svg" p-id="14773" xmlns:xlink="http://www.w3.org/1999/xlink" width="128" height="128"><defs><style type="text/css"></style></defs><path d="M723.4 735.5c-11 0-20-9-20-20s9-20 20-20c42.6 0 82.7-16.7 113.1-47.1 30.3-30.3 47.1-70.5 47.1-113.1v-22.5c0-39.2-14.5-77-40.8-106.4-26.1-29.2-61.7-47.8-100.2-52.4-9.4-1.1-16.7-8.6-17.5-18-4.7-50.6-28-97.5-65.7-132.1-37.9-34.7-87.1-53.8-138.5-53.8-51.4 0-100.6 19.1-138.5 53.8-37.6 34.5-61 81.4-65.7 132.1-0.9 9.4-8.2 16.9-17.5 18-38.5 4.6-74.1 23.2-100.2 52.4-26.3 29.4-40.8 67.2-40.8 106.4v22.5c0 42.6 16.7 82.7 47.1 113.1s70.5 47.1 113.1 47.1c11 0 20 9 20 20s-9 20-20 20c-53.3 0-103.5-20.9-141.4-58.8-37.9-37.9-58.8-88.1-58.8-141.4v-22.5c0-49.1 18.1-96.4 51-133.1 29.1-32.5 67.6-54.5 109.6-63 8.6-54.6 35.4-104.6 76.5-142.3 45.3-41.5 104.1-64.4 165.5-64.4s120.2 23 165.4 64.5c41.1 37.7 67.9 87.8 76.5 142.3 42.1 8.5 80.6 30.5 109.6 63 32.9 36.8 51 84 51 133.1v22.5c0 53.3-20.9 103.5-58.8 141.4-37.7 37.8-87.9 58.7-141.1 58.7z" p-id="14774" fill="#68d8fe"></path><path d="M453.2 915.6c-3.6 0-7.3-1-10.6-3-9.4-5.9-12.2-18.2-6.4-27.6l93.4-149.5h-76.5c-6.9 0-13.4-3.6-17-9.5s-4-13.3-0.9-19.5l90.1-180.1c4.9-9.9 17-13.9 26.8-8.9 9.9 4.9 13.9 17 8.9 26.8l-75.6 151.2h80.2c7.3 0 14 3.9 17.5 10.3s3.3 14.1-0.5 20.3L470.1 906.2c-3.8 6.1-10.3 9.4-16.9 9.4z" p-id="14775" fill="#68d8fe"></path></svg>