<?xml version="1.0" standalone="no"?><!DOCTYPE svg PUBLIC "-//W3C//DTD SVG 1.1//EN" "http://www.w3.org/Graphics/SVG/1.1/DTD/svg11.dtd"><svg t="1603120834519" class="icon" viewBox="0 0 1024 1024" version="1.1" xmlns="http://www.w3.org/2000/svg" p-id="28896" xmlns:xlink="http://www.w3.org/1999/xlink" width="128" height="128"><defs><style type="text/css"></style></defs><path d="M511.680217 286.786679c-124.272351 0-225.033219 100.700493-225.03322 224.913492s100.760868 224.913493 225.03322 224.913493c124.332726 0 225.092571-100.700493 225.092571-224.913493s-100.759845-224.913493-225.092571-224.913492z m309.393559 2.557242l86.936001-83.639932c15.980973-15.401782 15.980973-40.372499 0-55.753815-15.97995-15.381315-41.909505-15.361873-57.890478 0.020466l-86.897116 83.660398c-15.980973 15.402805-15.980973 40.353057 0 55.734372 15.940041 15.380292 41.869596 15.380292 57.851593-0.021489z m161.008021 182.90268H859.187839c-22.61302 0-40.9916 17.638729-40.9916 39.393195s18.378579 39.413662 40.9916 39.413662h122.894981c22.61302 0 40.951691-17.659195 40.951691-39.413662s-18.339694-39.393195-40.952714-39.393195zM821.591569 734.156706c-15.97995-15.401782-41.909505-15.401782-57.890478-0.039909-15.980973 15.402805-15.980973 40.353057 0 55.753815l86.937024 83.640955c15.97995 15.421224 41.909505 15.421224 57.890479 0.039909 15.980973-15.382339 15.941064-40.353057-0.039909-55.734372l-86.897116-83.660398z m-288.777009 92.329848c-22.61302 0-40.931225 17.659195-40.931225 39.433104v118.299314c0 21.773909 18.318204 39.433104 40.931225 39.433104 22.574135 0 40.910759-17.659195 40.910758-39.433104V865.919658c0.001023-21.773909-18.336624-39.433104-40.910758-39.433104z m-289.016463-91.850941l-86.87665 83.661422c-16.001439 15.401782-16.001439 40.352033-0.039909 55.733348 16.001439 15.382339 41.910529 15.382339 57.891502-0.020466l86.917582-83.639932c15.980973-15.421224 16.001439-40.353057 0.020466-55.753815-15.98302-15.381315-41.912575-15.361873-57.912991 0.019443z m-38.034245-222.295875c0-21.754466-18.33867-39.393195-40.952714-39.393196H41.91718c-22.614044 0-40.951691 17.638729-40.951691 39.393196s18.337647 39.393195 40.951691 39.393195h122.893958c22.614044 0 40.952714-17.638729 40.952714-39.393195z m37.533848-222.515887c16.001439 15.401782 41.930995 15.421224 57.891502 0.039909 15.980973-15.381315 15.980973-40.353057-0.020466-55.753815l-86.897116-83.639932c-15.980973-15.401782-41.909505-15.401782-57.890478-0.020466s-15.980973 40.331567 0.020466 55.733349l86.896092 83.640955z m288.797475-92.330871c22.574135 0 40.952714-17.638729 40.952715-39.413662V39.759539c0-21.773909-18.378579-39.413662-40.952715-39.413662-22.61302 0-40.930201 17.638729-40.930201 39.413662v118.319779c0 21.774933 18.317181 39.413662 40.930201 39.413662z" fill="#68d8fe" p-id="28897"></path></svg>