<?xml version="1.0" standalone="no"?><!DOCTYPE svg PUBLIC "-//W3C//DTD SVG 1.1//EN" "http://www.w3.org/Graphics/SVG/1.1/DTD/svg11.dtd"><svg t="1600876096850" class="icon" viewBox="0 0 1024 1024" version="1.1" xmlns="http://www.w3.org/2000/svg" p-id="14897" width="128" height="128" xmlns:xlink="http://www.w3.org/1999/xlink"><defs><style type="text/css"></style></defs><path d="M893.696 868.608H737.423a420.342 420.342 0 0 0 72.899-58.301 425.405 425.405 0 0 0 90.767-134.308c21.934-51.723 33.07-106.988 33.07-164.26s-11.136-112.538-33.08-164.28a425.564 425.564 0 0 0-90.757-134.293c-39.01-39.004-84.219-69.376-134.313-90.25-51.727-21.944-106.988-33.065-164.255-33.065-57.272 0-112.532 11.126-164.275 33.075-50.104 21.402-95.268 51.743-134.292 90.24-39.005 39-69.376 84.209-90.25 134.308-21.95 51.738-33.076 107.008-33.076 164.27 0 57.267 11.126 112.527 33.075 164.275 21.397 50.1 51.743 95.268 90.24 134.293a424.924 424.924 0 0 0 134.313 90.772c51.723 21.94 106.983 33.07 164.255 33.07h381.952c18.068 0 32.768-14.7 32.768-32.758a32.809 32.809 0 0 0-32.768-32.788z m-381.952 0.773c-48.338 0-95.232-9.42-139.392-27.98-43.018-18.013-81.306-43.869-113.853-76.918-33.035-33.04-58.921-71.363-76.923-113.859-18.57-44.165-27.976-91.064-27.976-139.392 0-48.333 9.41-95.232 27.96-139.351 18.018-42.547 43.904-80.87 76.933-113.9 33.035-33.029 71.358-58.915 113.874-76.912 44.145-18.57 91.04-27.981 139.377-27.981 48.333 0 95.227 9.41 139.356 27.965 42.542 18.018 80.86 43.9 113.89 76.928 33.039 33.04 58.926 71.363 76.917 113.87 18.56 44.149 27.97 91.043 27.97 139.381 0 48.328-9.41 95.227-27.96 139.356-18.017 42.532-43.888 80.84-76.928 113.89-33.034 33.039-71.352 58.92-113.863 76.907-44.155 18.575-91.044 27.996-139.382 27.996z" fill="#3C74F4" p-id="14898"></path><path d="M511.744 598.272c-52.224 0-94.208 41.99-94.208 94.208s42.496 94.208 94.208 94.208c51.707 0 94.203-41.99 94.203-94.208 0.005-51.712-41.979-94.208-94.203-94.208z m0-174.592c51.707 0 94.203-41.984 94.203-94.208 0-51.712-41.979-94.208-94.203-94.208s-94.208 41.984-94.208 94.208 42.496 94.208 94.208 94.208z m181.258-6.656c-51.727 0-94.208 41.984-94.208 94.208a93.952 93.952 0 0 0 94.208 94.208c52.214 0 94.193-42.501 94.193-94.208 0-51.712-41.979-94.208-94.193-94.208z m-363.018 0c-51.712 0-94.208 41.984-94.208 94.208 0 52.23 41.984 94.208 94.208 94.208s94.208-42.501 94.208-94.208c0-51.712-41.984-94.208-94.208-94.208z" fill="#3C74F4" p-id="14899"></path></svg>