<?xml version="1.0" standalone="no"?><!DOCTYPE svg PUBLIC "-//W3C//DTD SVG 1.1//EN" "http://www.w3.org/Graphics/SVG/1.1/DTD/svg11.dtd"><svg t="1603120438214" class="icon" viewBox="0 0 1038 1024" version="1.1" xmlns="http://www.w3.org/2000/svg" p-id="18529" xmlns:xlink="http://www.w3.org/1999/xlink" width="129.75" height="128"><defs><style type="text/css"></style></defs><path d="M642.32321405 182.37098202c-95.07857107-0.50625-178.33258905 50.74553595-223.48526797 127.57500001a199.55892893 199.55892893 0 0 0-81.12053514-17.76696405c-113.08660703-1.15714298-204.76607107 89.859375-205.36874999 203.81383905-0.10848202 10.92053594 0.77142893 21.73258905 2.30223202 32.26741095l0.49419608 3.42321405C148.00625 607.57276798 214.13214298 662.72991095 290.53973203 662.72991095H695.23839298c83.57946405 0 158.89017893-51.95089297 187.67410702-130.99821488 0.38571405-1.096875 0.83169607-2.31428595 1.265625-3.47142809a261.32142892 261.32142892 0 0 0 14.56071405-86.15892892c0.04821405-143.13616095-114.29196405-258.95892893-256.43973203-259.73035703" p-id="18530" fill="#68d8fe"></path><path d="M246.84553595 716.91071405m24.10714297 0l494.1964281 0q24.10714297 0 24.10714298 24.10714297l0 0q0 24.10714297-24.10714297 24.10714298l-494.1964281 0q-24.10714297 0-24.10714298-24.10714298l0 0q0-24.10714297 24.10714297-24.10714297Z" p-id="18531" fill="#68d8fe"></path><path d="M246.84553595 801.28571405m24.10714297 0l494.1964281 0q24.10714297 0 24.10714298 24.10714297l0 0q0 24.10714297-24.10714297 24.10714298l-494.1964281 0q-24.10714297 0-24.10714298-24.10714298l0 0q0-24.10714297 24.10714297-24.10714297Z" p-id="18532" fill="#68d8fe"></path></svg>