<?xml version="1.0" standalone="no"?><!DOCTYPE svg PUBLIC "-//W3C//DTD SVG 1.1//EN" "http://www.w3.org/Graphics/SVG/1.1/DTD/svg11.dtd"><svg t="1603119970347" class="icon" viewBox="0 0 1024 1024" version="1.1" xmlns="http://www.w3.org/2000/svg" p-id="13847" xmlns:xlink="http://www.w3.org/1999/xlink" width="128" height="128"><defs><style type="text/css"></style></defs><path d="M270.336 518.656c0 134.144 109.056 243.2 243.2 243.2s243.2-109.056 243.2-243.2-109.056-243.2-243.2-243.2S270.336 384 270.336 518.656z" fill="#68d8fe" p-id="13848"></path><path d="M516.096 312.32c-6.144 0-11.776-2.56-15.872-6.656L366.08 171.008c-8.704-8.704-8.704-23.04 0.512-31.744 8.704-8.704 22.528-8.704 31.232 0l118.784 118.784L634.88 139.776c8.704-8.704 23.04-8.704 31.744 0 8.704 8.704 8.704 23.04 0 31.744l-134.656 134.656c-4.096 3.584-9.728 6.144-15.872 6.144zM381.44 867.328c-12.288 0-22.528-10.24-22.528-22.528 0-6.144 2.56-11.776 6.656-15.872l134.656-134.656c8.704-8.704 23.04-8.704 31.744 0l134.656 134.656c8.704 8.704 8.704 23.04 0 31.744-8.704 8.704-23.04 8.704-31.744 0L516.096 742.4l-118.784 118.784c-4.096 4.096-9.728 6.144-15.872 6.144z m527.36-108.032c-4.096 0-7.68-1.024-11.264-3.072L112.64 303.616c-10.752-6.144-14.336-19.968-8.192-30.72 6.144-10.752 19.968-14.336 30.72-8.192h0.512l784.896 453.12c10.752 6.144 14.336 19.968 8.192 30.72-4.608 6.656-12.288 10.752-19.968 10.752z" fill="#68d8fe" p-id="13849"></path><path d="M516.096 986.112c-12.288 0-22.528-10.24-22.528-22.528v-906.24c0-12.288 10.24-22.528 22.528-22.528 12.288 0 22.528 10.24 22.528 22.528v906.24c0 12.288-10.24 22.528-22.528 22.528z" fill="#68d8fe" p-id="13850"></path><path d="M141.312 472.064c-12.288 0-22.528-10.24-22.528-22.528 0-10.24 6.656-18.944 16.384-21.504l162.304-43.52-43.52-162.304c-3.072-11.776 4.096-24.064 15.872-27.648 11.776-3.072 24.064 4.096 27.648 15.872L346.624 394.24c3.072 11.776-4.096 24.064-15.872 27.648L146.944 471.04c-1.536 0.512-3.584 1.024-5.632 1.024z m597.504 344.576c-10.24 0-18.944-6.656-21.504-16.384l-49.152-183.808c-3.072-11.776 4.096-24.064 15.872-27.648l183.808-49.152c11.776-3.072 24.064 4.096 27.136 15.872 3.072 11.776-4.096 24.064-15.872 27.136l-162.304 43.52 43.52 162.304c3.072 11.776-4.096 24.064-15.872 27.648-2.048 0.512-3.584 0.512-5.632 0.512zM123.904 759.296c-12.288 0-22.528-10.24-22.528-22.528 0-8.192 4.096-15.36 11.264-19.456l784.896-453.12c10.752-6.144 24.576-2.56 30.72 8.192 6.144 10.752 2.56 24.064-8.192 30.208L135.168 756.736c-3.584 1.536-7.68 2.56-11.264 2.56z" fill="#68d8fe" p-id="13851"></path><path d="M890.88 472.064c-2.048 0-4.096 0-5.632-1.024L701.44 421.888c-11.776-3.072-18.944-15.36-15.872-27.648l49.152-183.808c3.072-11.776 15.36-18.944 27.648-15.872 11.776 3.072 18.944 15.36 15.872 27.136L734.72 384l162.304 43.52c11.776 3.072 18.944 15.36 15.872 27.648-3.072 9.728-11.776 16.896-22.016 16.896zM293.888 816.64c-12.288 0-22.528-10.24-22.528-22.528 0-2.048 0-4.096 0.512-5.632l43.52-162.304-161.792-43.008c-11.776-3.072-18.944-15.36-15.872-27.648 3.072-11.776 15.36-18.944 27.136-15.872l183.808 49.152c11.776 3.072 18.944 15.36 15.872 27.648l-49.152 183.808c-2.56 9.728-11.776 16.384-21.504 16.384z" fill="#68d8fe" p-id="13852"></path></svg>