<?xml version="1.0" standalone="no"?><!DOCTYPE svg PUBLIC "-//W3C//DTD SVG 1.1//EN" "http://www.w3.org/Graphics/SVG/1.1/DTD/svg11.dtd"><svg t="1603120727765" class="icon" viewBox="0 0 1024 1024" version="1.1" xmlns="http://www.w3.org/2000/svg" p-id="27230" xmlns:xlink="http://www.w3.org/1999/xlink" width="128" height="128"><defs><style type="text/css"></style></defs><path d="M703.488 23.04c-92.16 0-174.592 38.912-232.96 100.864-31.232-35.84-77.312-58.368-128.512-58.368-93.696 0-169.984 76.288-169.984 169.984v4.096C74.752 259.072 2.048 345.088 2.048 448 2.048 565.248 97.28 660.48 214.528 660.48h488.96c176.128 0 318.976-142.848 318.976-318.976 0-175.616-142.848-318.464-318.976-318.464z" fill="#68d8fe" p-id="27231"></path><path d="M906.752 96.256c45.568 55.296 73.216 125.952 73.216 203.264 0 176.128-142.848 318.976-318.976 318.976H172.032c-48.128 0-92.16-15.872-127.488-42.496 38.912 51.712 100.352 84.992 169.984 84.992h488.96c176.128 0 318.976-142.848 318.976-318.976 0-98.816-45.056-187.392-115.712-245.76z" fill="#68d8fe" p-id="27232"></path><path d="M172.032 1000.96c-3.072 0-6.656-0.512-9.728-2.048-10.24-5.12-14.848-17.92-9.728-28.672l127.488-254.976c5.12-10.752 17.92-14.848 28.672-9.728 10.752 5.12 14.848 17.92 9.728 28.672l-127.488 254.976c-4.096 7.68-11.264 11.776-18.944 11.776z" fill="#68d8fe" p-id="27233"></path><path d="M299.52 1000.96c-3.072 0-6.656-0.512-9.728-2.048-10.24-5.12-14.848-17.92-9.728-28.672l127.488-254.976c5.12-10.752 17.92-14.848 28.672-9.728 10.752 5.12 14.848 17.92 9.728 28.672l-127.488 254.976c-3.584 7.68-11.264 11.776-18.944 11.776z" fill="#68d8fe" p-id="27234"></path><path d="M427.008 1000.96c-3.072 0-6.656-0.512-9.728-2.048-10.24-5.12-14.848-17.92-9.728-28.672l127.488-254.976c5.12-10.752 17.92-14.848 28.672-9.728 10.752 5.12 14.848 17.92 9.728 28.672l-127.488 254.976c-3.584 7.68-11.264 11.776-18.944 11.776z" fill="#68d8fe" p-id="27235"></path><path d="M554.496 1000.96c-3.072 0-6.656-0.512-9.728-2.048-10.24-5.12-14.848-17.92-9.728-28.672l127.488-254.976c5.12-10.752 17.92-14.848 28.672-9.728 10.24 5.12 14.848 17.92 9.728 28.672L573.44 989.184c-3.584 7.68-11.264 11.776-18.944 11.776z" fill="#68d8fe" p-id="27236"></path></svg>